<?xml version="1.0" encoding="UTF-8"?>
<svg version="1.1" xmlns="http://www.w3.org/2000/svg" width="500" height="500">
<path d="M0 0 C165 0 330 0 500 0 C500 165 500 330 500 500 C335 500 170 500 0 500 C0 335 0 170 0 0 Z " fill="#F2EEEA" transform="translate(0,0)"/>
<path d="M0 0 C0 33.33 0 66.66 0 101 C-24.09 101 -48.18 101 -73 101 C-73 91.1 -73 81.2 -73 71 C-73.33 70.67 -73.66 70.34 -74 70 C-74 80.23 -74 90.46 -74 101 C-77.3 101 -80.6 101 -84 101 C-84 78.89 -84 56.78 -84 34 C-74.9912745 29.7959281 -66.16353033 25.72773299 -56.9375 22.125 C-50.49461583 19.58746149 -44.05970239 17.04251563 -37.67578125 14.359375 C-36.67748291 13.94155762 -35.67918457 13.52374023 -34.65063477 13.09326172 C-32.7614487 12.29980675 -30.8750476 11.49967741 -28.99194336 10.69189453 C-28.1438208 10.33724121 -27.29569824 9.98258789 -26.421875 9.6171875 C-25.68549805 9.30378418 -24.94912109 8.99038086 -24.19042969 8.66748047 C-21.7073127 7.91081062 -19.58080421 7.98011623 -17 8 C-15.96397519 7.03737204 -14.96812186 6.03089285 -14 5 C-12.01262298 4.03221009 -9.98661365 3.14160674 -7.9375 2.3125 C-6.87402344 1.87550781 -5.81054688 1.43851562 -4.71484375 0.98828125 C-2 0 -2 0 0 0 Z " fill="#939EC7" transform="translate(300,119)"/>
<path d="M0 0 C15.84 0 31.68 0 48 0 C48 12.21 48 24.42 48 37 C42.20783168 39.57429703 36.42584512 42.10253126 30.5625 44.5 C29.82531738 44.80260742 29.08813477 45.10521484 28.32861328 45.41699219 C23.58943832 47.35929407 18.83969002 49.27334562 14.078125 51.16015625 C12.07733733 51.96874525 10.10081611 52.8199673 8.125 53.6875 C5 55 5 55 3.16796875 55.4140625 C0.32671067 56.18197009 -2.15847078 57.41556902 -4.8125 58.6875 C-9.82210962 61.01702502 -14.84322166 63.29865179 -19.9375 65.4375 C-21.14277344 65.95183594 -22.34804687 66.46617187 -23.58984375 66.99609375 C-27.23882242 68.07030626 -29.35542182 67.94035681 -33 67 C-32.67 67.99 -32.34 68.98 -32 70 C-33.32 69.67 -34.64 69.34 -36 69 C-36 60 -36 51 -36 42 C-34.91468994 42.00523682 -33.82937988 42.01047363 -32.71118164 42.01586914 C-28.69882018 42.03391836 -24.68646233 42.04543171 -20.67407227 42.05493164 C-18.93480832 42.05997204 -17.19554864 42.0668043 -15.45629883 42.07543945 C-12.96174063 42.08751792 -10.46723827 42.09323108 -7.97265625 42.09765625 C-6.7992141 42.10539818 -6.7992141 42.10539818 -5.60206604 42.11329651 C-3.73432886 42.11349226 -1.86670796 42.06199694 0 42 C0.33 41.67 0.66 41.34 1 41 C-11.21 41 -23.42 41 -36 41 C-36 32.42 -36 23.84 -36 15 C-16.2 15 3.6 15 24 15 C16.08 14.67 8.16 14.34 0 14 C0 9.38 0 4.76 0 0 Z " fill="#97A1C9" transform="translate(252,221)"/>
<path d="M0 0 C-0.08378906 0.99902344 -0.16757813 1.99804688 -0.25390625 3.02734375 C-0.35574219 4.31769531 -0.45757812 5.60804688 -0.5625 6.9375 C-0.66691406 8.22527344 -0.77132812 9.51304687 -0.87890625 10.83984375 C-0.91886719 11.88269531 -0.95882812 12.92554688 -1 14 C-0.505 14.495 -0.505 14.495 0 15 C0.09365006 16.7492872 0.11744438 18.50236254 0.11352539 20.25415039 C0.11344986 21.37523697 0.11337433 22.49632355 0.11329651 23.65138245 C0.10813522 24.8711528 0.10297394 26.09092316 0.09765625 27.34765625 C0.0962413 28.58921982 0.09482635 29.83078339 0.09336853 31.10997009 C0.08870591 34.41605491 0.07971497 37.72207146 0.06866455 41.02813721 C0.05844827 44.3996115 0.05387045 47.77109283 0.04882812 51.14257812 C0.03777395 57.76173775 0.02101736 64.38086493 0 71 C-1.88550544 70.06774263 -3.76978547 69.13300667 -5.65356445 68.19726562 C-6.70300735 67.67700806 -7.75245026 67.15675049 -8.83369446 66.62072754 C-13.73642954 64.1111789 -18.45500299 61.31385175 -23.1875 58.5 C-35.68396026 51.1358719 -48.31963459 44.0421315 -61 37 C-61 36.01 -61 35.02 -61 34 C-60.3294458 33.62190186 -59.6588916 33.24380371 -58.96801758 32.85424805 C-55.91578326 31.13269816 -52.86413646 29.41010942 -49.8125 27.6875 C-48.75740234 27.09259766 -47.70230469 26.49769531 -46.61523438 25.88476562 C-45.59365234 25.30791016 -44.57207031 24.73105469 -43.51953125 24.13671875 C-42.11344604 23.34334106 -42.11344604 23.34334106 -40.67895508 22.53393555 C-38.86511829 21.49535571 -37.08558048 20.39489538 -35.3425293 19.24145508 C-34.18297729 18.62693481 -34.18297729 18.62693481 -33 18 C-32.01 18.33 -31.02 18.66 -30 19 C-30 18.34 -30 17.68 -30 17 C-29.0925 16.566875 -28.185 16.13375 -27.25 15.6875 C-24.15480977 14.1999482 -24.15480977 14.1999482 -22.23046875 12.64453125 C-19.32116982 10.49949649 -16.20983666 8.76436575 -13.0625 7 C-8.06054182 4.17891258 -8.06054182 4.17891258 -3.12109375 1.25 C-1 0 -1 0 0 0 Z " fill="#D1D2DE" transform="translate(206,221)"/>
<path d="M0 0 C7.93468514 3.85406433 15.60699692 7.99277859 23.1875 12.5 C35.68396026 19.8641281 48.31963459 26.9578685 61 34 C61 34.66 61 35.32 61 36 C57.60723694 37.96368878 54.21027282 39.91999444 50.8125 41.875 C49.37293945 42.70837891 49.37293945 42.70837891 47.90429688 43.55859375 C46.97294922 44.09355469 46.04160156 44.62851563 45.08203125 45.1796875 C44.22843018 45.67194824 43.3748291 46.16420898 42.49536133 46.67138672 C40.04704623 47.97495102 37.59312233 49.02123339 35 50 C34.67 49.67 34.34 49.34 34 49 C33.67 49.99 33.34 50.98 33 52 C30.8304646 53.4659023 28.65086776 54.68942611 26.2890625 55.81640625 C22.99850205 57.51783939 19.85325128 59.45484164 16.6875 61.375 C14.12926061 62.92388358 11.5675892 64.46666065 9 66 C8.3498291 66.38961914 7.6996582 66.77923828 7.02978516 67.18066406 C2.23443007 70 2.23443007 70 0 70 C0 50.86 0 31.72 0 12 C1.98 12.99 1.98 12.99 4 14 C3.34 13.54625 2.68 13.0925 2 12.625 C-1.03715741 8.6387309 -0.27173968 4.82605393 0 0 Z " fill="#9DA6CB" transform="translate(309,119)"/>
<path d="M0 0 C1.98 0 3.96 0 6 0 C6 23.43 6 46.86 6 71 C-1.59 71 -9.18 71 -17 71 C-16.98839844 67.76316406 -16.97679687 64.52632813 -16.96484375 61.19140625 C-16.95705413 58.07055764 -16.95097683 54.94971009 -16.94506836 51.82885742 C-16.94002692 49.65307127 -16.93319393 47.47728853 -16.92456055 45.30151367 C-16.91248662 42.18146933 -16.90676995 39.06146962 -16.90234375 35.94140625 C-16.89718246 34.96224747 -16.89202118 33.98308868 -16.88670349 32.97425842 C-16.88662796 32.07340012 -16.88655243 31.17254181 -16.88647461 30.24438477 C-16.884254 29.44718521 -16.88203339 28.64998566 -16.87974548 27.82862854 C-16.79949544 25.98077719 -16.79949544 25.98077719 -18 25 C-18.46644877 20.34127094 -18.70527629 15.67347603 -19 11 C-12.4 11 -5.8 11 1 11 C0.67 7.37 0.34 3.74 0 0 Z " fill="#7988BD" transform="translate(294,149)"/>
<path d="M0 0 C-0.09087891 0.74685059 -0.18175781 1.49370117 -0.27539062 2.26318359 C-0.6848217 5.63364123 -1.09243368 9.00431639 -1.5 12.375 C-1.71462891 14.1384375 -1.71462891 14.1384375 -1.93359375 15.9375 C-2.06894531 17.05898437 -2.20429688 18.18046875 -2.34375 19.3359375 C-2.46943359 20.37282715 -2.59511719 21.4097168 -2.72460938 22.47802734 C-3.03618375 24.90853629 -3.03618375 24.90853629 -3 27 C4.59 27 12.18 27 20 27 C20 31.29 20 35.58 20 40 C11.75 40 3.5 40 -5 40 C-5 50.23 -5 60.46 -5 71 C-8.3 71 -11.6 71 -15 71 C-15 48.89 -15 26.78 -15 4 C-4.875 -0.5 -4.875 -0.5 0 0 Z " fill="#7081BA" transform="translate(231,149)"/>
<path d="M0 0 C18.48 0 36.96 0 56 0 C56 1.98 56 3.96 56 6 C43.22607326 12.49901536 43.22607326 12.49901536 39.16015625 13.4140625 C36.32296035 14.18364547 33.83836081 15.41708746 31.1875 16.6875 C26.17789038 19.01702502 21.15677834 21.29865179 16.0625 23.4375 C14.85722656 23.95183594 13.65195313 24.46617187 12.41015625 24.99609375 C8.76117758 26.07030626 6.64457818 25.94035681 3 25 C3.33 25.99 3.66 26.98 4 28 C2.68 27.67 1.36 27.34 0 27 C0 18 0 9 0 0 Z " fill="#475EAB" transform="translate(216,263)"/>
<path d="M0 0 C0.52207031 1.07636719 1.04414063 2.15273437 1.58203125 3.26171875 C6.63354141 13.3903576 12.27587307 21.74439645 20 30 C20.61617187 30.68449219 21.23234375 31.36898438 21.8671875 32.07421875 C26.63439624 37.14935724 32.30464094 41.0348766 38 45 C37.67 46.32 37.34 47.64 37 49 C21.50668426 40.39567644 6.11852917 31.64128202 -9.16259766 22.66455078 C-14.10263443 19.76649789 -19.05159229 16.88372912 -24 14 C-21.76118156 11.56952479 -19.47483712 9.95575471 -16.62109375 8.30078125 C-15.78255859 7.81416016 -14.94402344 7.32753906 -14.08007812 6.82617188 C-13.20802734 6.32666016 -12.33597656 5.82714844 -11.4375 5.3125 C-10.56158203 4.80138672 -9.68566406 4.29027344 -8.78320312 3.76367188 C-2.25582026 0 -2.25582026 0 0 0 Z " fill="#072894" transform="translate(168,243)"/>
<path d="M0 0 C7.93468514 3.85406433 15.60699692 7.99277859 23.1875 12.5 C35.68396026 19.8641281 48.31963459 26.9578685 61 34 C61 34.66 61 35.32 61 36 C54.07 39.96 47.14 43.92 40 48 C37.80975229 45.07966972 36.03406194 42.35574837 34.29907227 39.1784668 C26.44261748 24.81676636 16.37897644 13.26364863 2.30859375 4.7265625 C1.54675781 4.15679687 0.78492188 3.58703125 0 3 C0 2.01 0 1.02 0 0 Z " fill="#082994" transform="translate(309,119)"/>
<path d="M0 0 C0.68835938 0.05220703 1.37671875 0.10441406 2.0859375 0.15820312 C3.76612758 0.28655098 5.44564749 0.42362225 7.125 0.5625 C7.85197561 2.30483825 8.55598244 4.05677345 9.25 5.8125 C9.64445312 6.78703125 10.03890625 7.7615625 10.4453125 8.765625 C11.125 11.5625 11.125 11.5625 10.41479492 13.58056641 C8.89629327 15.91393692 7.60540782 16.75103309 5.16796875 18.0703125 C4.38486328 18.49957031 3.60175781 18.92882812 2.79492188 19.37109375 C1.56612305 20.02271484 1.56612305 20.02271484 0.3125 20.6875 C-0.49509766 21.12964844 -1.30269531 21.57179687 -2.13476562 22.02734375 C-6.01958009 24.13360679 -9.75068594 25.91277438 -13.875 27.5625 C-13.875 18.6525 -13.875 9.7425 -13.875 0.5625 C-8.93536273 -0.26077288 -4.8936766 -0.41254832 0 0 Z " fill="#949EC7" transform="translate(322.875,161.4375)"/>
<path d="M0 0 C1.21236328 0.02707031 1.21236328 0.02707031 2.44921875 0.0546875 C3.37154297 0.08949219 3.37154297 0.08949219 4.3125 0.125 C4.54324219 0.93582031 4.77398437 1.74664062 5.01171875 2.58203125 C6.99884894 9.32884878 9.28348468 15.65265825 12.359375 21.98046875 C13.3125 24.125 13.3125 24.125 13.3125 26.125 C9.64583333 26.125 5.97916667 26.125 2.3125 26.125 C1.095625 26.310625 -0.12125 26.49625 -1.375 26.6875 C-3.55859375 26.69140625 -3.55859375 26.69140625 -5.6875 26.125 C-8.33129646 23.48120354 -9.95952772 20.41783213 -11.6875 17.125 C-12.11417969 16.37476563 -12.54085937 15.62453125 -12.98046875 14.8515625 C-14.125 12.75 -14.125 12.75 -15.6875 9.125 C-14.55275052 5.72075156 -13.71938696 4.90846291 -10.6875 3.125 C-9.6975 3.455 -8.7075 3.785 -7.6875 4.125 C-7.6875 3.465 -7.6875 2.805 -7.6875 2.125 C-4.48369983 -0.01086678 -3.66810033 -0.10632175 0 0 Z " fill="#ADB3D1" transform="translate(183.6875,235.875)"/>
<path d="M0 0 C11.55 0 23.1 0 35 0 C35 4.62 35 9.24 35 14 C23.45 14 11.9 14 0 14 C0 9.38 0 4.76 0 0 Z " fill="#0C2C95" transform="translate(216,221)"/>
<path d="M0 0 C11.22 0 22.44 0 34 0 C34 4.29 34 8.58 34 13 C22.78 13 11.56 13 0 13 C0 8.71 0 4.42 0 0 Z " fill="#022492" transform="translate(217,176)"/>
<path d="M0 0 C2.33294775 -0.04241723 4.66702567 -0.04092937 7 0 C7.33 0.33 7.66 0.66 8 1 C8.66 0.67 9.32 0.34 10 0 C20.71048275 5.03499438 26.29861976 18.78092268 31 29 C30.34 29.99 29.68 30.98 29 32 C28.34 32 27.68 32 27 32 C26.67 31.67 26.34 31.34 26 31 C25.67 31.99 25.34 32.98 25 34 C20.66666667 37 20.66666667 37 18 37 C17.49440092 35.56445975 16.9957251 34.1264798 16.5 32.6875 C16.2215625 31.88699219 15.943125 31.08648437 15.65625 30.26171875 C15 28 15 28 15 25 C18.465 24.505 18.465 24.505 22 24 C21.40832031 24.05542969 20.81664062 24.11085937 20.20703125 24.16796875 C17.44919424 24.19046334 15.56757786 24.04764047 13 23 C10.6615475 19.56172737 9.29099188 15.93784959 8 12 C9.98 11.67 11.96 11.34 14 11 C12.80375 11.020625 11.6075 11.04125 10.375 11.0625 C7.29447255 10.71717397 6.26007016 10.2834656 4.1328125 7.96484375 C0 1.72607656 0 1.72607656 0 0 Z " fill="#A6AECE" transform="translate(317,137)"/>
<path d="M0 0 C8 0 8 0 10.09375 1.75 C10.5578125 2.4925 11.021875 3.235 11.5 4 C11.9846875 4.7425 12.469375 5.485 12.96875 6.25 C13.3090625 6.8275 13.649375 7.405 14 8 C16.64752004 5.42215154 18.94432065 3.08351902 21 0 C23.64 0 26.28 0 29 0 C29 5.61 29 11.22 29 17 C26.69 17 24.38 17 22 17 C21.67 15.35 21.34 13.7 21 12 C20.4740625 12.99 20.4740625 12.99 19.9375 14 C18 16 18 16 14.5 16.5 C11 16 11 16 9.0625 14 C8.711875 13.34 8.36125 12.68 8 12 C7.67 13.65 7.34 15.3 7 17 C4.69 17 2.38 17 0 17 C0 11.39 0 5.78 0 0 Z " fill="#082994" transform="translate(207,316)"/>
<path d="M0 0 C3.41714149 -0.0809323 6.83236685 -0.14046835 10.25 -0.1875 C11.70212891 -0.22520508 11.70212891 -0.22520508 13.18359375 -0.26367188 C14.58544922 -0.27817383 14.58544922 -0.27817383 16.015625 -0.29296875 C16.87446289 -0.3086792 17.73330078 -0.32438965 18.61816406 -0.34057617 C21.48283816 0.06904051 22.85063164 1.113864 25 3 C24.67 5.31 24.34 7.62 24 10 C23.01 10.33 22.02 10.66 21 11 C22.98 13.97 22.98 13.97 25 17 C23.56344146 17.08131463 22.1255517 17.13933559 20.6875 17.1875 C19.48673828 17.23970703 19.48673828 17.23970703 18.26171875 17.29296875 C16 17 16 17 14.20703125 15.61328125 C13 14 13 14 13 12 C11.02 12 9.04 12 7 12 C7 13.65 7 15.3 7 17 C4.69 17 2.38 17 0 17 C0 11.39 0 5.78 0 0 Z " fill="#18369A" transform="translate(220,338)"/>
<path d="M0 0 C0.89267578 0.00644531 1.78535156 0.01289063 2.70507812 0.01953125 C4.09823242 0.04466797 4.09823242 0.04466797 5.51953125 0.0703125 C6.45990234 0.07933594 7.40027344 0.08835937 8.36914062 0.09765625 C10.69036093 0.12122194 13.01106769 0.15412134 15.33203125 0.1953125 C15.33203125 1.5153125 15.33203125 2.8353125 15.33203125 4.1953125 C10.38203125 4.1953125 5.43203125 4.1953125 0.33203125 4.1953125 C0.33203125 4.8553125 0.33203125 5.5153125 0.33203125 6.1953125 C1.30785156 6.16050781 2.28367188 6.12570312 3.2890625 6.08984375 C4.56136719 6.06277344 5.83367187 6.03570312 7.14453125 6.0078125 C8.40910156 5.97300781 9.67367187 5.93820312 10.9765625 5.90234375 C14.33203125 6.1953125 14.33203125 6.1953125 16.2578125 7.55078125 C17.79967037 9.91122548 17.74592395 11.4360278 17.33203125 14.1953125 C16.12768555 15.83325195 16.12768555 15.83325195 14.33203125 17.1953125 C11.97192383 17.53588867 11.97192383 17.53588867 9.2265625 17.48828125 C8.24365234 17.47861328 7.26074219 17.46894531 6.24804688 17.45898438 C5.22388672 17.43384766 4.19972656 17.40871094 3.14453125 17.3828125 C2.10876953 17.36927734 1.07300781 17.35574219 0.00585938 17.34179688 C-2.55260574 17.30642639 -5.11002655 17.25706794 -7.66796875 17.1953125 C-7.66796875 15.5453125 -7.66796875 13.8953125 -7.66796875 12.1953125 C-6.67796875 11.8653125 -5.68796875 11.5353125 -4.66796875 11.1953125 C-5.16296875 10.8240625 -5.65796875 10.4528125 -6.16796875 10.0703125 C-7.66796875 8.1953125 -7.66796875 8.1953125 -8.04296875 5.1328125 C-7.91921875 4.1634375 -7.79546875 3.1940625 -7.66796875 2.1953125 C-4.46390413 0.05926942 -3.67196128 -0.04677658 0 0 Z " fill="#0F2F97" transform="translate(154.66796875,315.8046875)"/>
<path d="M0 0 C0.89267578 0.00644531 1.78535156 0.01289063 2.70507812 0.01953125 C4.09823242 0.04466797 4.09823242 0.04466797 5.51953125 0.0703125 C6.45990234 0.07933594 7.40027344 0.08835937 8.36914062 0.09765625 C10.69036093 0.12122194 13.01106769 0.15412134 15.33203125 0.1953125 C15.33203125 1.5153125 15.33203125 2.8353125 15.33203125 4.1953125 C10.38203125 4.1953125 5.43203125 4.1953125 0.33203125 4.1953125 C0.33203125 4.8553125 0.33203125 5.5153125 0.33203125 6.1953125 C1.2240625 6.16050781 2.11609375 6.12570312 3.03515625 6.08984375 C4.205625 6.06277344 5.37609375 6.03570312 6.58203125 6.0078125 C8.32226562 5.95560547 8.32226562 5.95560547 10.09765625 5.90234375 C13.57607488 6.2174179 14.91742648 6.72195822 17.33203125 9.1953125 C17.76953125 11.6953125 17.76953125 11.6953125 17.33203125 14.1953125 C16.1237793 15.83325195 16.1237793 15.83325195 14.33203125 17.1953125 C11.97192383 17.53588867 11.97192383 17.53588867 9.2265625 17.48828125 C8.24365234 17.47861328 7.26074219 17.46894531 6.24804688 17.45898438 C5.22388672 17.43384766 4.19972656 17.40871094 3.14453125 17.3828125 C2.10876953 17.36927734 1.07300781 17.35574219 0.00585938 17.34179688 C-2.55260574 17.30642639 -5.11002655 17.25706794 -7.66796875 17.1953125 C-7.66796875 15.5453125 -7.66796875 13.8953125 -7.66796875 12.1953125 C-6.67796875 11.8653125 -5.68796875 11.5353125 -4.66796875 11.1953125 C-5.16296875 10.8240625 -5.65796875 10.4528125 -6.16796875 10.0703125 C-7.66796875 8.1953125 -7.66796875 8.1953125 -8.04296875 5.1328125 C-7.91921875 4.1634375 -7.79546875 3.1940625 -7.66796875 2.1953125 C-4.46390413 0.05926942 -3.67196128 -0.04677658 0 0 Z " fill="#0F2F96" transform="translate(278.66796875,315.8046875)"/>
<path d="M0 0 C0.88945312 0.00966797 1.77890625 0.01933594 2.6953125 0.02929688 C3.61570313 0.05443359 4.53609375 0.07957031 5.484375 0.10546875 C6.42023438 0.11900391 7.35609375 0.13253906 8.3203125 0.14648438 C10.62558827 0.18176921 12.9296856 0.23106594 15.234375 0.29296875 C15.234375 1.94296875 15.234375 3.59296875 15.234375 5.29296875 C14.244375 5.62296875 13.254375 5.95296875 12.234375 6.29296875 C12.894375 6.66421875 13.554375 7.03546875 14.234375 7.41796875 C16.234375 9.29296875 16.234375 9.29296875 16.609375 12.35546875 C16.234375 15.29296875 16.234375 15.29296875 14.234375 17.29296875 C11.98779297 17.52001953 11.98779297 17.52001953 9.2265625 17.48828125 C8.24042969 17.48183594 7.25429687 17.47539062 6.23828125 17.46875 C4.68947266 17.44361328 4.68947266 17.44361328 3.109375 17.41796875 C2.06910156 17.40894531 1.02882812 17.39992188 -0.04296875 17.390625 C-2.61741592 17.36700622 -5.19140712 17.33407024 -7.765625 17.29296875 C-7.765625 15.97296875 -7.765625 14.65296875 -7.765625 13.29296875 C-2.485625 13.29296875 2.794375 13.29296875 8.234375 13.29296875 C8.234375 12.63296875 8.234375 11.97296875 8.234375 11.29296875 C7.25855469 11.32777344 6.28273437 11.36257813 5.27734375 11.3984375 C3.36888672 11.43904297 3.36888672 11.43904297 1.421875 11.48046875 C-0.47498047 11.53267578 -0.47498047 11.53267578 -2.41015625 11.5859375 C-5.765625 11.29296875 -5.765625 11.29296875 -7.6875 9.9375 C-9.25246312 7.55036422 -9.25373485 6.08216787 -8.765625 3.29296875 C-5.88003089 0.56012701 -3.93012418 -0.07557931 0 0 Z " fill="#103097" transform="translate(170.765625,337.70703125)"/>
<path d="M0 0 C7.92 0 15.84 0 24 0 C24 4.62 24 9.24 24 14 C16.08 14 8.16 14 0 14 C0 9.38 0 4.76 0 0 Z " fill="#022492" transform="translate(252,206)"/>
<path d="M0 0 C7.92 0 15.84 0 24 0 C24 4.62 24 9.24 24 14 C16.08 14 8.16 14 0 14 C0 9.38 0 4.76 0 0 Z " fill="#032592" transform="translate(227,206)"/>
<path d="M0 0 C7.92 0 15.84 0 24 0 C24 4.62 24 9.24 24 14 C16.08 14 8.16 14 0 14 C0 9.38 0 4.76 0 0 Z " fill="#092A94" transform="translate(227,190)"/>
<path d="M0 0 C7.59 0 15.18 0 23 0 C23 4.62 23 9.24 23 14 C15.41 14 7.82 14 0 14 C0 9.38 0 4.76 0 0 Z " fill="#042592" transform="translate(277,206)"/>
<path d="M0 0 C7.92 0 15.84 0 24 0 C24 4.29 24 8.58 24 13 C16.08 13 8.16 13 0 13 C0 8.71 0 4.42 0 0 Z " fill="#022492" transform="translate(252,191)"/>
<path d="M0 0 C7.59 0 15.18 0 23 0 C23 1.65 23 3.3 23 5 C17.72 5 12.44 5 7 5 C7 5.66 7 6.32 7 7 C11.29 7 15.58 7 20 7 C20 8.32 20 9.64 20 11 C15.71 11 11.42 11 7 11 C7 11.66 7 12.32 7 13 C11.95 13 16.9 13 22 13 C22 14.32 22 15.64 22 17 C14.74 17 7.48 17 0 17 C0 11.39 0 5.78 0 0 Z " fill="#0A2B95" transform="translate(281,338)"/>
<path d="M0 0 C7.92 0 15.84 0 24 0 C23.67 4.29 23.34 8.58 23 13 C15.41 13 7.82 13 0 13 C0 8.71 0 4.42 0 0 Z " fill="#022492" transform="translate(252,221)"/>
<path d="M0 0 C7.59 0 15.18 0 23 0 C23 4.29 23 8.58 23 13 C15.41 13 7.82 13 0 13 C0 8.71 0 4.42 0 0 Z " fill="#012492" transform="translate(252,176)"/>
<path d="M0 0 C4.13739301 0.64468254 5.88935006 3.34196983 8.3125 6.5625 C10.86642233 10.38561294 13.00378772 14.29766285 15 18.4375 C12.03 18.4375 9.06 18.4375 6 18.4375 C5.67 17.7775 5.34 17.1175 5 16.4375 C2.64400765 15.96998212 2.64400765 15.96998212 -0.0625 15.8125 C-0.98160156 15.73773438 -1.90070313 15.66296875 -2.84765625 15.5859375 C-3.55792969 15.53695313 -4.26820313 15.48796875 -5 15.4375 C-5.33 16.4275 -5.66 17.4175 -6 18.4375 C-8.64 18.4375 -11.28 18.4375 -14 18.4375 C-11.68956475 12.14798181 -7.49934588 1.03745892 0 0 Z " fill="#0F2F96" transform="translate(339,314.5625)"/>
<path d="M0 0 C7.59 0 15.18 0 23 0 C22.125 11.875 22.125 11.875 21 13 C19.43827255 13.08685603 17.87270656 13.10702219 16.30859375 13.09765625 C15.36435547 13.09443359 14.42011719 13.09121094 13.44726562 13.08789062 C12.45404297 13.07951172 11.46082031 13.07113281 10.4375 13.0625 C9.44041016 13.05798828 8.44332031 13.05347656 7.41601562 13.04882812 C4.94398513 13.03700023 2.47198528 13.01906415 0 13 C0 8.71 0 4.42 0 0 Z " fill="#032592" transform="translate(277,221)"/>
<path d="M0 0 C2.81753688 0.18543682 4.12678214 0.449839 6.2331543 2.35766602 C7.72037446 4.43315173 8.93851264 6.53273675 10.1328125 8.7890625 C10.56916016 9.54380859 11.00550781 10.29855469 11.45507812 11.07617188 C14.5703125 16.52905465 14.5703125 16.52905465 14.5703125 17.8515625 C11.6003125 17.8515625 8.6303125 17.8515625 5.5703125 17.8515625 C5.2403125 17.1915625 4.9103125 16.5315625 4.5703125 15.8515625 C2.21432015 15.38404462 2.21432015 15.38404462 -0.4921875 15.2265625 C-1.41128906 15.15179688 -2.33039063 15.07703125 -3.27734375 15 C-3.98761719 14.95101563 -4.69789063 14.90203125 -5.4296875 14.8515625 C-5.7596875 15.8415625 -6.0896875 16.8315625 -6.4296875 17.8515625 C-9.0696875 17.8515625 -11.7096875 17.8515625 -14.4296875 17.8515625 C-12.94328142 13.82556815 -11.0871208 10.21204305 -8.8671875 6.5390625 C-8.24714844 5.47042969 -7.62710938 4.40179688 -6.98828125 3.30078125 C-4.2824294 0.7105994 -3.56970414 0.33474121 0 0 Z " fill="#0F2F96" transform="translate(189.4296875,315.1484375)"/>
<path d="M0 0 C7.26 0 14.52 0 22 0 C22 4.29 22 8.58 22 13 C14.74 13 7.48 13 0 13 C0 8.71 0 4.42 0 0 Z " fill="#022492" transform="translate(278,191)"/>
<path d="M0 0 C2.85318274 0.45404283 3.85581689 1.28865879 5.85546875 3.40234375 C7.7218791 5.98507363 9.35304786 8.61123412 10.9375 11.375 C11.59298828 12.47521484 11.59298828 12.47521484 12.26171875 13.59765625 C13.18360513 15.17294981 14.06593363 16.77131788 14.9375 18.375 C11.9675 18.375 8.9975 18.375 5.9375 18.375 C5.6075 17.715 5.2775 17.055 4.9375 16.375 C1.6375 16.375 -1.6625 16.375 -5.0625 16.375 C-5.3925 17.035 -5.7225 17.695 -6.0625 18.375 C-8.7025 18.375 -11.3425 18.375 -14.0625 18.375 C-11.74412553 12.0638695 -7.56406082 0.92891975 0 0 Z " fill="#0D2E96" transform="translate(253.0625,314.625)"/>
<path d="M0 0 C3.47921735 -0.02683201 6.95823039 -0.0467567 10.4375 -0.0625 C11.92733398 -0.07506836 11.92733398 -0.07506836 13.44726562 -0.08789062 C14.39150391 -0.09111328 15.33574219 -0.09433594 16.30859375 -0.09765625 C17.62041626 -0.10551147 17.62041626 -0.10551147 18.95874023 -0.11352539 C21 0 21 0 22 1 C22.14355117 5.00220653 22.04216403 8.99441683 22 13 C14.74 13 7.48 13 0 13 C0 8.71 0 4.42 0 0 Z " fill="#022492" transform="translate(277,176)"/>
<path d="M0 0 C7.59 0 15.18 0 23 0 C22.67 4.29 22.34 8.58 22 13 C15.07 13 8.14 13 1 13 C0.67 8.71 0.34 4.42 0 0 Z " fill="#032592" transform="translate(252,236)"/>
<path d="M0 0 C7.26 0 14.52 0 22 0 C22 4.29 22 8.58 22 13 C15.07 13 8.14 13 1 13 C0.67 8.71 0.34 4.42 0 0 Z " fill="#022492" transform="translate(229,236)"/>
<path d="M0 0 C7.26 0 14.52 0 22 0 C21.34 4.29 20.68 8.58 20 13 C13.4 13 6.8 13 0 13 C0 8.71 0 4.42 0 0 Z " fill="#032592" transform="translate(276,236)"/>
<path d="M0 0 C2.31 0 4.62 0 7 0 C7.05383848 2.45862401 7.09359038 4.9160755 7.125 7.375 C7.14175781 8.07367188 7.15851563 8.77234375 7.17578125 9.4921875 C7.19344267 11.32897486 7.10303261 13.16601963 7 15 C4.50942749 17.49057251 3.71527341 17.2565813 0.28125 17.265625 C-0.65074219 17.26820313 -1.58273438 17.27078125 -2.54296875 17.2734375 C-3.51878906 17.26570313 -4.49460938 17.25796875 -5.5 17.25 C-6.47582031 17.25773437 -7.45164063 17.26546875 -8.45703125 17.2734375 C-9.38902344 17.27085937 -10.32101563 17.26828125 -11.28125 17.265625 C-12.13783203 17.26336914 -12.99441406 17.26111328 -13.87695312 17.25878906 C-16 17 -16 17 -18 15 C-18.1953125 11.7421875 -18.1953125 11.7421875 -18.125 7.875 C-18.10695312 6.59367187 -18.08890625 5.31234375 -18.0703125 3.9921875 C-18.04710937 3.00476563 -18.02390625 2.01734375 -18 1 C-15.69 1 -13.38 1 -11 1 C-10.67 4.63 -10.34 8.26 -10 12 C-7.03 12 -4.06 12 -1 12 C-0.67 8.04 -0.34 4.08 0 0 Z " fill="#062793" transform="translate(209,338)"/>
<path d="M0 0 C6.93 0 13.86 0 21 0 C22 4 22 4 22 12 C14.41 12 6.82 12 -1 12 C-1 2 -1 2 0 0 Z " fill="#052693" transform="translate(253,162)"/>
<path d="M0 0 C5.10880829 -0.79274611 5.10880829 -0.79274611 8 0 C10.53166875 2.71704199 12.28204023 5.72025861 14 9 C14.32871094 8.3503125 14.65742188 7.700625 14.99609375 7.03125 C16.49856576 4.39276256 17.88802186 2.18877734 20 0 C23.13414169 -0.7797133 25.84005495 -0.56879011 29 0 C28.34128942 1.33728179 27.67181297 2.66925226 27 4 C26.46246094 5.06734375 25.92492187 6.1346875 25.37109375 7.234375 C20.58901045 16.16468115 20.58901045 16.16468115 16.71875 18.19921875 C13.92472621 18.49106028 12.51515934 18.27338408 10 17 C7.08924137 13.9710094 5.0549635 10.64676165 3 7 C2.44054687 6.10667969 1.88109375 5.21335937 1.3046875 4.29296875 C0 2 0 2 0 0 Z " fill="#102F97" transform="translate(249,338)"/>
<path d="M0 0 C9.24 0 18.48 0 28 0 C28 3.3 28 6.6 28 10 C19 10 10 10 1 10 C0.67 6.7 0.34 3.4 0 0 Z " fill="#082994" transform="translate(272,137)"/>
<path d="M0 0 C6.93 0 13.86 0 21 0 C21 3.96 21 7.92 21 12 C13.74 12 6.48 12 -1 12 C-0.67 8.04 -0.34 4.08 0 0 Z " fill="#022492" transform="translate(230,162)"/>
<path d="M0 0 C6.6 0 13.2 0 20 0 C20.66 3.96 21.32 7.92 22 12 C14.74 12 7.48 12 0 12 C0 8.04 0 4.08 0 0 Z " fill="#032492" transform="translate(276,162)"/>
<path d="M0 0 C9.26688103 -0.63665595 9.26688103 -0.63665595 12.375 2.0625 C12.91125 2.701875 13.4475 3.34125 14 4 C16.11149645 4.07642709 16.11149645 4.07642709 18 3 C18.42796875 2.48953125 18.8559375 1.9790625 19.296875 1.453125 C21.63884663 -0.54507098 23.15848694 -0.3055135 26.1875 -0.1875 C27.08855469 -0.16042969 27.98960937 -0.13335937 28.91796875 -0.10546875 C29.94857422 -0.05326172 29.94857422 -0.05326172 31 0 C29.86913662 3.39259014 28.79067537 4.33037102 26.125 6.625 C25.42632812 7.23601562 24.72765625 7.84703125 24.0078125 8.4765625 C22 10 22 10 19 11 C19 13.31 19 15.62 19 18 C16.69 18 14.38 18 12 18 C12 15.69 12 13.38 12 11 C11.42765625 10.7421875 10.8553125 10.484375 10.265625 10.21875 C7.78871005 8.88634058 5.8658834 7.34943882 3.75 5.5 C3.04359375 4.8915625 2.3371875 4.283125 1.609375 3.65625 C0 2 0 2 0 0 Z " fill="#133398" transform="translate(307,338)"/>
<path d="M0 0 C6.93 0 13.86 0 21 0 C20.67 3.96 20.34 7.92 20 12 C13.4 12 6.8 12 0 12 C0 8.04 0 4.08 0 0 Z " fill="#042692" transform="translate(253,250)"/>
<path d="M0 0 C0.33 0 0.66 0 1 0 C1 14.85 1 29.7 1 45 C0.67 45 0.34 45 0 45 C0 42.36 0 39.72 0 37 C-7.92 37 -15.84 37 -24 37 C-24 41.62 -24 46.24 -24 51 C-11.13 51 1.74 51 15 51 C15 51.33 15 51.66 15 52 C10.05 52 5.1 52 0 52 C0 54.64 0 57.28 0 60 C-0.33 60 -0.66 60 -1 60 C-1 57.36 -1 54.72 -1 52 C-8.59 52 -16.18 52 -24 52 C-24 55.3 -24 58.6 -24 62 C-24.33 62 -24.66 62 -25 62 C-25 58.7 -25 55.4 -25 52 C-32.92 52 -40.84 52 -49 52 C-49 48.7 -49 45.4 -49 42 C-48.67 42 -48.34 42 -48 42 C-48 44.97 -48 47.94 -48 51 C-40.41 51 -32.82 51 -25 51 C-25 46.38 -25 41.76 -25 37 C-36.55 37 -48.1 37 -60 37 C-60 36.67 -60 36.34 -60 36 C-56.7 36 -53.4 36 -50 36 C-50 25.77 -50 15.54 -50 5 C-49.34 5.33 -48.68 5.66 -48 6 C-48.33 15.9 -48.66 25.8 -49 36 C-32.83 36 -16.66 36 0 36 C0 24.12 0 12.24 0 0 Z " fill="#D4D5DF" transform="translate(276,184)"/>
<path d="M0 0 C6.93 0 13.86 0 21 0 C21 3.96 21 7.92 21 12 C14.73 12 8.46 12 2 12 C0 4 0 4 0 0 Z " fill="#042592" transform="translate(231,250)"/>
<path d="M0 0 C6.6 0 13.2 0 20 0 C18.6328125 8.49609375 18.6328125 8.49609375 18 11 C14.69005287 12.65497356 11.00877 12.10084335 7.375 12.0625 C6.57320313 12.05798828 5.77140625 12.05347656 4.9453125 12.04882812 C2.96350994 12.03703168 0.98174567 12.01909605 -1 12 C-0.67 8.04 -0.34 4.08 0 0 Z " fill="#042693" transform="translate(275,250)"/>
<path d="M0 0 C1.18613892 0.00785522 1.18613892 0.00785522 2.39624023 0.01586914 C3.67724609 0.02070313 3.67724609 0.02070313 4.98413086 0.02563477 C5.88196289 0.03401367 6.77979492 0.04239258 7.70483398 0.05102539 C8.6065332 0.05553711 9.50823242 0.06004883 10.43725586 0.06469727 C12.67230988 0.07652295 14.90733 0.09445901 17.14233398 0.11352539 C17.14233398 3.74352539 17.14233398 7.37352539 17.14233398 11.11352539 C10.21233398 11.11352539 3.28233398 11.11352539 -3.85766602 11.11352539 C-2.7631999 0.16886423 -2.7631999 0.16886423 0 0 Z " fill="#052693" transform="translate(234.857666015625,148.886474609375)"/>
<path d="M0 0 C6.6 0 13.2 0 20 0 C20.33 3.63 20.66 7.26 21 11 C14.07 11 7.14 11 0 11 C0 7.37 0 3.74 0 0 Z " fill="#022492" transform="translate(253,149)"/>
<path d="M0 0 C5.94 0 11.88 0 18 0 C21 8.75 21 8.75 21 11 C14.4 11 7.8 11 1 11 C0.67 7.37 0.34 3.74 0 0 Z " fill="#032492" transform="translate(274,149)"/>
<path d="M0 0 C0.33 0 0.66 0 1 0 C1 2.64 1 5.28 1 8 C-6.92 8 -14.84 8 -23 8 C-23 12.29 -23 16.58 -23 21 C-15.08 21 -7.16 21 1 21 C1 21.66 1 22.32 1 23 C-6.92 23 -14.84 23 -23 23 C-23 27.62 -23 32.24 -23 37 C-23.33 37 -23.66 37 -24 37 C-24 32.38 -24 27.76 -24 23 C-31.92 23 -39.84 23 -48 23 C-48 22.34 -48 21.68 -48 21 C-40.08 21 -32.16 21 -24 21 C-24 16.38 -24 11.76 -24 7 C-31.59 7 -39.18 7 -47 7 C-47 6.67 -47 6.34 -47 6 C-31.49 6 -15.98 6 0 6 C0 4.02 0 2.04 0 0 Z " fill="#8491C2" transform="translate(275,183)"/>
<path d="M0 0 C5.61 0 11.22 0 17 0 C17 4.29 17 8.58 17 13 C12.71 13 8.42 13 4 13 C1.8523591 8.33121544 0.87711743 5.2627046 0 0 Z " fill="#072894" transform="translate(189,236)"/>
<path d="M0 0 C8.25 0 16.5 0 25 0 C25 1.32 25 2.64 25 4 C22.03 4 19.06 4 16 4 C16 8.29 16 12.58 16 17 C13.69 17 11.38 17 9 17 C9 12.71 9 8.42 9 4 C6.03 4 3.06 4 0 4 C0 2.68 0 1.36 0 0 Z " fill="#052793" transform="translate(298,316)"/>
<path d="M0 0 C7.92 0 15.84 0 24 0 C24 2.97 24 5.94 24 9 C20.82253509 10.58873246 17.45987798 10.41026221 14 10 C11.5 8.5 11.5 8.5 10 7 C10.99 8.485 10.99 8.485 12 10 C7.65574165 9.51980564 5.93796082 8.35568204 3.1875 5 C2.58292969 4.278125 1.97835937 3.55625 1.35546875 2.8125 C0 1 0 1 0 0 Z " fill="#072894" transform="translate(182,263)"/>
<path d="M0 0 C6.27 0 12.54 0 19 0 C19 1.98 19 3.96 19 6 C5.24137931 13 5.24137931 13 1 13 C0.67 8.71 0.34 4.42 0 0 Z " fill="#0D2D96" transform="translate(253,263)"/>
<path d="M0 0 C0.99 0.495 0.99 0.495 2 1 C2 0.67 2 0.34 2 0 C6.29 0 10.58 0 15 0 C19 7.625 19 7.625 19 11 C12.73 11 6.46 11 0 11 C0 7.37 0 3.74 0 0 Z " fill="#062793" transform="translate(309,149)"/>
<path d="M0 0 C19.8 0 39.6 0 60 0 C60 0.99 60 1.98 60 3 C40.2 3 20.4 3 0 3 C0 2.01 0 1.02 0 0 Z " fill="#5368B0" transform="translate(130,371)"/>
<path d="M0 0 C19.8 0 39.6 0 60 0 C60 0.99 60 1.98 60 3 C40.2 3 20.4 3 0 3 C0 2.01 0 1.02 0 0 Z " fill="#5368B0" transform="translate(310,372)"/>
<path d="M0 0 C5.61 0 11.22 0 17 0 C17.33 3.3 17.66 6.6 18 10 C11.73 10 5.46 10 -1 10 C-0.67 6.7 -0.34 3.4 0 0 Z " fill="#042693" transform="translate(254,137)"/>
<path d="M0 0 C2 4 2 4 2 9 C12.395 8.505 12.395 8.505 23 8 C23.33 5.36 23.66 2.72 24 0 C24.33 0 24.66 0 25 0 C25 10.89 25 21.78 25 33 C23.02 33.66 21.04 34.32 19 35 C16.43528213 27.30584638 21.12147645 18.88979892 23 11 C7.82 10.67 -7.36 10.34 -23 10 C-23 9.67 -23 9.34 -23 9 C-15.41 9 -7.82 9 0 9 C0 6.03 0 3.06 0 0 Z " fill="#6477B6" transform="translate(275,225)"/>
<path d="M0 0 C6.27 0 12.54 0 19 0 C19 3.3 19 6.6 19 10 C13.72 10 8.44 10 3 10 C0 1.125 0 1.125 0 0 Z " fill="#022492" transform="translate(233,263)"/>
<path d="M0 0 C4.29 0 8.58 0 13 0 C14.35148541 4.30785975 15 7.41957592 15 12 C10.05 12 5.1 12 0 12 C0 8.04 0 4.08 0 0 Z " fill="#0C2C95" transform="translate(216,250)"/>
<path d="M0 0 C4.62 0 9.24 0 14 0 C18 10.875 18 10.875 18 12 C13.05 12 8.1 12 3 12 C2.01 8.04 1.02 4.08 0 0 Z " fill="#032592" transform="translate(316,162)"/>
<path d="M0 0 C5.28 0 10.56 0 16 0 C18 6 18 6 18 10 C13.05 10 8.1 10 3 10 C0 4 0 4 0 0 Z " fill="#052793" transform="translate(216,263)"/>
<path d="M0 0 C1.70884005 1.62339805 3.37446717 3.29319053 5 5 C5 5.66 5 6.32 5 7 C7.64 7 10.28 7 13 7 C13.33 7.66 13.66 8.32 14 9 C12.02 9.33 10.04 9.66 8 10 C8.28875 10.55429688 8.5775 11.10859375 8.875 11.6796875 C9.431875 12.76636719 9.431875 12.76636719 10 13.875 C10.37125 14.59429687 10.7425 15.31359375 11.125 16.0546875 C12 18 12 18 12 20 C14.97 20 17.94 20 21 20 C21.33 20.66 21.66 21.32 22 22 C19.36 22 16.72 22 14 22 C14.99 25.3 15.98 28.6 17 32 C16.01 32.495 16.01 32.495 15 33 C14.01 29.37 13.02 25.74 12 22 C5.07 22 -1.86 22 -9 22 C-9 21.34 -9 20.68 -9 20 C-7.35 20 -5.7 20 -4 20 C-3.67 19.34 -3.34 18.68 -3 18 C-3 18.66 -3 19.32 -3 20 C1.29 20 5.58 20 10 20 C9.01 17.834375 9.01 17.834375 8 15.625 C6 11.25 6 11.25 6 9 C0.06 9.495 0.06 9.495 -6 10 C-6.33 10.99 -6.66 11.98 -7 13 C-8.0625 11.1875 -8.0625 11.1875 -9 9 C-8.67 8.01 -8.34 7.02 -8 6 C-4.37 6 -0.74 6 3 6 C2.01 4.68 1.02 3.36 0 2 C0 1.34 0 0.68 0 0 Z " fill="#99A3C9" transform="translate(318,140)"/>
<path d="M0 0 C-0.33 4.62 -0.66 9.24 -1 14 C-6.28 14 -11.56 14 -17 14 C-17.33 12.68 -17.66 11.36 -18 10 C-15.54220129 8.51993873 -13.08378912 7.04091426 -10.625 5.5625 C-9.92632812 5.14162109 -9.22765625 4.72074219 -8.5078125 4.28710938 C-7.8375 3.88427734 -7.1671875 3.48144531 -6.4765625 3.06640625 C-5.85861816 2.69459229 -5.24067383 2.32277832 -4.60400391 1.93969727 C-1.29306313 0 -1.29306313 0 0 0 Z " fill="#123298" transform="translate(206,221)"/>
<path d="M0 0 C0.99 4.29 1.98 8.58 3 13 C-0.63 13 -4.26 13 -8 13 C-9.32 9.37 -10.64 5.74 -12 2 C-7.7975546 -0.80163026 -4.99895065 -0.14489712 0 0 Z " fill="#052793" transform="translate(188,236)"/>
<path d="M0 0 C3.3 0 6.6 0 10 0 C11.94250868 3.88501735 11.65349557 8.74294555 12 13 C8.04 13 4.08 13 0 13 C0 8.71 0 4.42 0 0 Z " fill="#022492" transform="translate(217,236)"/>
<path d="M0 0 C3.3 0 6.6 0 10 0 C10.33 4.29 10.66 8.58 11 13 C7.37 13 3.74 13 0 13 C0 8.71 0 4.42 0 0 Z " fill="#0A2B95" transform="translate(217,176)"/>
<path d="M0 0 C3.96 0 7.92 0 12 0 C11.67 3.96 11.34 7.92 11 12 C7.37 12 3.74 12 0 12 C0 8.04 0 4.08 0 0 Z " fill="#052693" transform="translate(217,162)"/>
<path d="M0 0 C-0.14042877 1.64630328 -0.28749329 3.29204179 -0.4375 4.9375 C-0.51871094 5.85402344 -0.59992188 6.77054688 -0.68359375 7.71484375 C-1 10 -1 10 -2 11 C-4.01964199 11.07244053 -6.04167124 11.08377188 -8.0625 11.0625 C-9.16722656 11.05347656 -10.27195313 11.04445312 -11.41015625 11.03515625 C-12.69212891 11.01775391 -12.69212891 11.01775391 -14 11 C-14 8.36 -14 5.72 -14 3 C-9.07015675 0.96006486 -5.42039575 -0.40652968 0 0 Z " fill="#062793" transform="translate(231,149)"/>
<path d="M0 0 C3.63 0 7.26 0 11 0 C16 9.75 16 9.75 16 12 C12.7 12 9.4 12 6 12 C4.02 8.04 2.04 4.08 0 0 Z " fill="#062893" transform="translate(181,250)"/>
<path d="M0 0 C2.97 0 5.94 0 9 0 C9 4.62 9 9.24 9 14 C6.03 14 3.06 14 0 14 C0 9.38 0 4.76 0 0 Z " fill="#042592" transform="translate(217,206)"/>
<path d="M0 0 C0.66 0.639375 1.32 1.27875 2 1.9375 C5.85690912 4.58912502 8.37840033 4.68667121 13 5 C13.33 4.34 13.66 3.68 14 3 C15.09506492 6.28519475 15.09960608 8.73663415 15.0625 12.1875 C15.05347656 13.27417969 15.04445312 14.36085938 15.03515625 15.48046875 C15.02355469 16.31191406 15.01195312 17.14335937 15 18 C14.34 18 13.68 18 13 18 C13 17.34 13 16.68 13 16 C12.319375 15.79375 11.63875 15.5875 10.9375 15.375 C7.08360625 13.57104973 3.92212236 11.0989655 1 8 C1 7.34 1 6.68 1 6 C0.34 5.67 -0.32 5.34 -1 5 C-0.01 4.67 0.98 4.34 2 4 C1.34 2.68 0.68 1.36 0 0 Z " fill="#8592C2" transform="translate(191,268)"/>
<path d="M0 0 C3.96 0 7.92 0 12 0 C12 3.96 12 7.92 12 12 C9.69 12 7.38 12 5 12 C4.15885829 10.56705502 3.32734313 9.12845595 2.5 7.6875 C1.80390625 6.48673828 1.80390625 6.48673828 1.09375 5.26171875 C0 3 0 3 0 0 Z " fill="#0A2B95" transform="translate(194,250)"/>
<path d="M0 0 C4.95 0 9.9 0 15 0 C15 2.97 15 5.94 15 9 C11.37 9 7.74 9 4 9 C0 2.25 0 2.25 0 0 Z " fill="#113097" transform="translate(285,127)"/>
<path d="M0 0 C2.97 0 5.94 0 9 0 C9 4.29 9 8.58 9 13 C6.03 13 3.06 13 0 13 C0 8.71 0 4.42 0 0 Z " fill="#032592" transform="translate(217,191)"/>
<path d="M0 0 C4 6.75 4 6.75 4 9 C-0.95 9 -5.9 9 -11 9 C-11.33 7.02 -11.66 5.04 -12 3 C-4.71428571 -0.42857143 -4.71428571 -0.42857143 0 0 Z " fill="#0F2F97" transform="translate(283,127)"/>
<path d="M0 0 C1.97599865 0.23053318 3.9517661 0.46580532 5.921875 0.7421875 C8.29533036 1.03663873 10.61093201 1.07465837 13 1 C12.01 1.495 12.01 1.495 11 2 C11 4.64 11 7.28 11 10 C11.66 10.33 12.32 10.66 13 11 C8.38 11 3.76 11 -1 11 C-1 10.01 -1 9.02 -1 8 C1.475 8.99 1.475 8.99 4 10 C3.67 9.01 3.34 8.02 3 7 C0.49552484 5.78130071 0.49552484 5.78130071 -2 5 C-1.125 1.125 -1.125 1.125 0 0 Z " fill="#8B98C4" transform="translate(270,366)"/>
<path d="M0 0 C3.3 0 6.6 0 10 0 C10.70099722 5.1698545 10.70099722 5.1698545 10 8 C7.26214685 10.63158944 3.89044106 13 0 13 C0 8.71 0 4.42 0 0 Z " fill="#052793" transform="translate(309,176)"/>
<path d="M0 0 C0.66 0.33 1.32 0.66 2 1 C3.87056791 1.2275015 5.74685958 1.40962811 7.625 1.5625 C8.62789062 1.64628906 9.63078125 1.73007812 10.6640625 1.81640625 C11.43492187 1.87699219 12.20578125 1.93757813 13 2 C8.24572548 5.76115939 3.65895373 8.23740658 -2.5 7.6875 C-3.325 7.460625 -4.15 7.23375 -5 7 C-4.67 7.99 -4.34 8.98 -4 10 C-5.32 9.67 -6.64 9.34 -8 9 C-7.67 6.69 -7.34 4.38 -7 2 C-4.69 2 -2.38 2 0 2 C0 1.34 0 0.68 0 0 Z " fill="#818EC0" transform="translate(224,281)"/>
<path d="M0 0 C2.5625 -0.5625 2.5625 -0.5625 6 0 C13 7.04191617 13 7.04191617 13 10 C11.02090602 10.02686553 9.04171029 10.04633375 7.0625 10.0625 C5.96035156 10.07410156 4.85820312 10.08570313 3.72265625 10.09765625 C1 10 1 10 0 9 C-0.07179964 7.48071962 -0.08392007 5.95832518 -0.0625 4.4375 C-0.05347656 3.61121094 -0.04445313 2.78492188 -0.03515625 1.93359375 C-0.02355469 1.29550781 -0.01195312 0.65742188 0 0 Z " fill="#042693" transform="translate(309,137)"/>
<path d="M0 0 C0.33 0 0.66 0 1 0 C1 2.97 1 5.94 1 9 C8.59 9 16.18 9 24 9 C24.33 8.01 24.66 7.02 25 6 C25 6.99 25 7.98 25 9 C37.87 9 50.74 9 64 9 C64 9.33 64 9.66 64 10 C59.05 10 54.1 10 49 10 C49 12.64 49 15.28 49 18 C48.67 18 48.34 18 48 18 C48 15.36 48 12.72 48 10 C40.41 10 32.82 10 25 10 C25 13.3 25 16.6 25 20 C24.67 20 24.34 20 24 20 C24 16.7 24 13.4 24 10 C16.08 10 8.16 10 0 10 C0 6.7 0 3.4 0 0 Z " fill="#E2E0E4" transform="translate(227,226)"/>
<path d="M0 0 C1.423125 0.4021875 1.423125 0.4021875 2.875 0.8125 C4.25625018 3.57500036 4.06579306 5.75981099 3.875 8.8125 C1.875 10.8125 1.875 10.8125 -1.125 11.125 C-2.115 11.021875 -3.105 10.91875 -4.125 10.8125 C-6.28002531 7.57996204 -6.59356135 6.56099077 -6.125 2.8125 C-4.327529 -0.183285 -3.52310929 -0.21138656 0 0 Z " fill="#9DA6CB" transform="translate(241.125,366.1875)"/>
<path d="M0 0 C0.33 0 0.66 0 1 0 C1 1.98 1 3.96 1 6 C5.95 6 10.9 6 16 6 C13.43320517 8.56679483 10.94989318 9.33348554 7.5625 10.625 C6.40878906 11.07101562 5.25507813 11.51703125 4.06640625 11.9765625 C1 13 1 13 -2 13 C-1.67 11.02 -1.34 9.04 -1 7 C-7.27 7 -13.54 7 -20 7 C-20 6.67 -20 6.34 -20 6 C-13.4 6 -6.8 6 0 6 C0 4.02 0 2.04 0 0 Z " fill="#D2D3DE" transform="translate(273,256)"/>
<path d="M0 0 C5.09790664 -0.87894942 5.09790664 -0.87894942 8 0 C10.32851789 2.73284212 14 7.2287519 14 11 C11.03 11 8.06 11 5 11 C3.35 7.37 1.7 3.74 0 0 Z " fill="#062893" transform="translate(325,149)"/>
<path d="M0 0 C0 2.64 0 5.28 0 8 C-6.27 8 -12.54 8 -19 8 C-17.36773769 4.73547539 -13.87475961 4.13745308 -10.625 2.875 C-9.93921875 2.59785156 -9.2534375 2.32070312 -8.546875 2.03515625 C-5.55850791 0.85492567 -3.24102363 0 0 0 Z " fill="#0A2A95" transform="translate(252,139)"/>
<path d="M0 0 C2.64 0 5.28 0 8 0 C9.5625 2.8125 9.5625 2.8125 11 6 C9.74874616 9.75376152 8.4347596 10.24073289 5 12 C4.34 12 3.68 12 3 12 C2.49440092 10.56445975 1.9957251 9.1264798 1.5 7.6875 C1.2215625 6.88699219 0.943125 6.08648437 0.65625 5.26171875 C0 3 0 3 0 0 Z " fill="#072894" transform="translate(332,162)"/>
<path d="M0 0 C1.98 0 3.96 0 6 0 C6.99 3.96 7.98 7.92 9 12 C6.03 12 3.06 12 0 12 C0 8.04 0 4.08 0 0 Z " fill="#032592" transform="translate(309,162)"/>
<path d="M0 0 C6.75 -0.125 6.75 -0.125 9 1 C9.125 4.375 9.125 4.375 9 8 C7 10 7 10 3.375 10.125 C2.26125 10.08375 1.1475 10.0425 0 10 C0 6.7 0 3.4 0 0 Z " fill="#96A0C8" transform="translate(224,367)"/>
<path d="M0 0 C0.33 0.66 0.66 1.32 1 2 C1.99902344 1.91621094 2.99804688 1.83242187 4.02734375 1.74609375 C5.96287109 1.59333984 5.96287109 1.59333984 7.9375 1.4375 C9.22527344 1.33308594 10.51304687 1.22867188 11.83984375 1.12109375 C12.88269531 1.08113281 13.92554688 1.04117188 15 1 C15.33 1.33 15.66 1.66 16 2 C17.51928038 2.07179964 19.04167482 2.08392007 20.5625 2.0625 C21.38878906 2.05347656 22.21507812 2.04445312 23.06640625 2.03515625 C24.02353516 2.01775391 24.02353516 2.01775391 25 2 C25.33 2.66 25.66 3.32 26 4 C23.36 4 20.72 4 18 4 C18.99 7.3 19.98 10.6 21 14 C20.01 14.495 20.01 14.495 19 15 C18.01 11.37 17.02 7.74 16 4 C9.07 4 2.14 4 -5 4 C-5 3.34 -5 2.68 -5 2 C-3.35 2 -1.7 2 0 2 C0 1.34 0 0.68 0 0 Z " fill="#8390C1" transform="translate(314,158)"/>
<path d="M0 0 C5.28 0 10.56 0 16 0 C15 3 15 3 12.8203125 4.16796875 C11.93085938 4.50441406 11.04140625 4.84085937 10.125 5.1875 C8.79855469 5.70376953 8.79855469 5.70376953 7.4453125 6.23046875 C5 7 5 7 2 7 C0.5393715 4.35261084 0 3.10551666 0 0 Z " fill="#072894" transform="translate(237,275)"/>
<path d="M0 0 C3.0625 -0.5625 3.0625 -0.5625 7 0 C9.7791139 2.70400271 11.95498744 5.7118187 14 9 C14 9.33 14 9.66 14 10 C8.90330973 10.79086573 8.90330973 10.79086573 6 10 C3.71801005 7.59388508 0 3.51313179 0 0 Z " fill="#082994" transform="translate(317,137)"/>
<path d="M0 0 C0.33 0 0.66 0 1 0 C1.66 6.93 2.32 13.86 3 21 C9.93 21.33 16.86 21.66 24 22 C24 22.33 24 22.66 24 23 C17.07 23 10.14 23 3 23 C3 25.64 3 28.28 3 31 C2.34 30.67 1.68 30.34 1 30 C0.57348633 27.24023438 0.57348633 27.24023438 0.33203125 23.59375 C0.24373047 22.29308594 0.15542969 20.99242187 0.06445312 19.65234375 C0.02328369 18.97155762 -0.01788574 18.29077148 -0.06030273 17.58935547 C-0.18702064 15.50787408 -0.3296053 13.42793536 -0.47460938 11.34765625 C-0.96016932 3.86780921 -0.96016932 3.86780921 -1 1 C-0.67 0.67 -0.34 0.34 0 0 Z " fill="#98A2C9" transform="translate(274,153)"/>
<path d="M0 0 C0.66 1.32 1.32 2.64 2 4 C4.31 4 6.62 4 9 4 C9 4.66 9 5.32 9 6 C7.02 6 5.04 6 3 6 C3.66 8.64 4.32 11.28 5 14 C4.01 14.495 4.01 14.495 3 15 C2.34 12.36 1.68 9.72 1 7 C-4.94 6.67 -10.88 6.34 -17 6 C-17 5.34 -17 4.68 -17 4 C-8.585 3.505 -8.585 3.505 0 3 C0 2.01 0 1.02 0 0 Z " fill="#818FC0" transform="translate(291,143)"/>
<path d="M0 0 C1.98 0.99 3.96 1.98 6 3 C5.01 3.33 4.02 3.66 3 4 C4.32 7.96 5.64 11.92 7 16 C11.29 16.33 15.58 16.66 20 17 C20 17.33 20 17.66 20 18 C16.04 18 12.08 18 8 18 C9.65 21.96 11.3 25.92 13 30 C12.34 30 11.68 30 11 30 C6.80899722 21.49169024 3.03622408 13.32784557 1 4 C-0.65 3.67 -2.3 3.34 -4 3 C-2.68 2.01 -1.36 1.02 0 0 Z " fill="#A8B0CF" transform="translate(186,232)"/>
<path d="M0 0 C0.66 0.33 1.32 0.66 2 1 C2 2.65 2 4.3 2 6 C8.27 6 14.54 6 21 6 C21 6.33 21 6.66 21 7 C14.4 7 7.8 7 1 7 C1 9.97 1 12.94 1 16 C-1 13 -1 13 0 7 C-6.93 7 -13.86 7 -21 7 C-21 6.67 -21 6.34 -21 6 C-14.07 6 -7.14 6 0 6 C0 4.02 0 2.04 0 0 Z " fill="#A4ACCE" transform="translate(274,243)"/>
<path d="M0 0 C1.98 0 3.96 0 6 0 C7.98 3.96 9.96 7.92 12 12 C10.35 12 8.7 12 7 12 C5.234375 10.13671875 5.234375 10.13671875 3.75 7.6875 C3.24984375 6.88699219 2.7496875 6.08648437 2.234375 5.26171875 C1 3 1 3 0 0 Z " fill="#082994" transform="translate(174,250)"/>
<path d="M0 0 C3.96 0 7.92 0 12 0 C12 1.98 12 3.96 12 6 C11 7 11 7 8 8 C5.95703125 6.6015625 5.95703125 6.6015625 3.8125 4.625 C3.09707031 3.97789062 2.38164062 3.33078125 1.64453125 2.6640625 C0 1 0 1 0 0 Z " fill="#2C47A1" transform="translate(193,275)"/>
<path d="M0 0 C0.99 0.33 1.98 0.66 3 1 C3.94921875 3.06640625 3.94921875 3.06640625 4.6875 5.5625 C5.06455078 6.80193359 5.06455078 6.80193359 5.44921875 8.06640625 C5.63097656 8.70449219 5.81273437 9.34257812 6 10 C4.02 10 2.04 10 0 10 C-3 4.25 -3 4.25 -3 2 C-2.01 1.34 -1.02 0.68 0 0 Z " fill="#082994" transform="translate(173,239)"/>
<path d="M0 0 C1.98 0 3.96 0 6 0 C6 3.63 6 7.26 6 11 C4.68 11 3.36 11 2 11 C1.34 7.37 0.68 3.74 0 0 Z " fill="#052693" transform="translate(294,149)"/>
<path d="M0 0 C6.75 0.75 6.75 0.75 9 3 C9.70211894 4.65204456 10.36971413 6.31923769 11 8 C11.33 8.66 11.66 9.32 12 10 C7.65574165 9.51980564 5.93796082 8.35568204 3.1875 5 C2.58292969 4.278125 1.97835937 3.55625 1.35546875 2.8125 C0 1 0 1 0 0 Z " fill="#1C3A9B" transform="translate(182,263)"/>
<path d="M0 0 C5.18701457 0.31436452 8.5947359 3.30033267 12 7 C12 7.66 12 8.32 12 9 C9.375 9.4375 9.375 9.4375 6 9 C3.61001246 6.94913231 1.6932063 4.65389073 0 2 C0 1.34 0 0.68 0 0 Z " fill="#0F2F96" transform="translate(309,127)"/>
<path d="M0 0 C0.99 0 1.98 0 3 0 C4.32 2.31 5.64 4.62 7 7 C7.33 4.69 7.66 2.38 8 0 C8.33 0 8.66 0 9 0 C9 3.3 9 6.6 9 10 C8.01 10 7.02 10 6 10 C4.515 7.03 4.515 7.03 3 4 C2.67 5.98 2.34 7.96 2 10 C1.34 10 0.68 10 0 10 C0 6.7 0 3.4 0 0 Z " fill="#3A54A7" transform="translate(247,367)"/>
<path d="M0 0 C0.99 0.33 1.98 0.66 3 1 C3.94921875 3.06640625 3.94921875 3.06640625 4.6875 5.5625 C5.06455078 6.80193359 5.06455078 6.80193359 5.44921875 8.06640625 C5.63097656 8.70449219 5.81273437 9.34257812 6 10 C5.34 10 4.68 10 4 10 C4 9.01 4 8.02 4 7 C1.52733235 7.34444881 1.52733235 7.34444881 -1 8 C-1.33 8.66 -1.66 9.32 -2 10 C-2.66 9.67 -3.32 9.34 -4 9 C-2.68 6.03 -1.36 3.06 0 0 Z " fill="#7F8DC0" transform="translate(289,367)"/>
<path d="M0 0 C3 0 3 0 5.1875 1.75 C7 4 7 4 7 8 C4.69 8 2.38 8 0 8 C0 5.36 0 2.72 0 0 Z " fill="#133298" transform="translate(217,275)"/>
<path d="M0 0 C-0.33 1.32 -0.66 2.64 -1 4 C-1 3.01 -1 2.02 -1 1 C-2.258125 1.08378906 -3.51625 1.16757812 -4.8125 1.25390625 C-15.66570291 1.91919183 -26.16456795 1.98366352 -37 1 C-37 0.67 -37 0.34 -37 0 C-24.56664001 -1.14309533 -12.44653437 -0.80060118 0 0 Z " fill="#D5D5DF" transform="translate(253,262)"/>
<path d="M0 0 C1.98 0 3.96 0 6 0 C6 2.97 6 5.94 6 9 C2 7 2 7 0 4 C0 2.68 0 1.36 0 0 Z " fill="#334DA4" transform="translate(200,263)"/>
<path d="M0 0 C1.32 0 2.64 0 4 0 C4 2.64 4 5.28 4 8 C2.02 8.66 0.04 9.32 -2 10 C-1.34 6.7 -0.68 3.4 0 0 Z " fill="#0A2B95" transform="translate(296,250)"/>
<path d="M0 0 C3.63 0 7.26 0 11 0 C8.36335259 2.63664741 6.24029829 4.255224 3 6 C2.34 6 1.68 6 1 6 C0.67 4.02 0.34 2.04 0 0 Z " fill="#0B2C95" transform="translate(320,176)"/>
<path d="M0 0 C3.96 0 7.92 0 12 0 C9.25906335 1.8272911 6.86174676 2.93698178 3.8125 4.125 C2.91144531 4.47820312 2.01039063 4.83140625 1.08203125 5.1953125 C0.05142578 5.59363281 0.05142578 5.59363281 -1 6 C-0.67 4.02 -0.34 2.04 0 0 Z " fill="#0E2E96" transform="translate(274,263)"/>
<path d="M0 0 C0.66 1.32 1.32 2.64 2 4 C2.66 4 3.32 4 4 4 C4.33 6.31 4.66 8.62 5 11 C3.35 11 1.7 11 0 11 C0 7.37 0 3.74 0 0 Z " fill="#223F9E" transform="translate(309,149)"/>
<path d="M0 0 C0.86625 0.639375 1.7325 1.27875 2.625 1.9375 C5.9598812 3.97548296 8.16047478 4.63433093 12 5 C12.33 4.34 12.66 3.68 13 3 C13.33 3.99 13.66 4.98 14 6 C13.195625 6.12375 12.39125 6.2475 11.5625 6.375 C10.2940625 6.684375 10.2940625 6.684375 9 7 C8.67 7.66 8.34 8.32 8 9 C7.34 8.34 6.68 7.68 6 7 C4.01178687 6.60235737 2.01055661 6.26224651 0 6 C0 4.02 0 2.04 0 0 Z " fill="#7A89BE" transform="translate(309,131)"/>
<path d="M0 0 C0 2.31 0 4.62 0 7 C-2.375 6.6875 -2.375 6.6875 -5 6 C-5.66 5.01 -6.32 4.02 -7 3 C-2.25 0 -2.25 0 0 0 Z " fill="#1E3C9C" transform="translate(300,119)"/>
<path d="M0 0 C1.32 0.33 2.64 0.66 4 1 C5.25 4.0625 5.25 4.0625 6 7 C5.01 6.01 4.02 5.02 3 4 C2.67 5.98 2.34 7.96 2 10 C1.34 10 0.68 10 0 10 C0 6.7 0 3.4 0 0 Z " fill="#4960AC" transform="translate(213,367)"/>
<path d="M0 0 C0 1.32 0 2.64 0 4 C-3.63 4 -7.26 4 -11 4 C-7.63661956 0.63661956 -4.71164284 0 0 0 Z " fill="#25419F" transform="translate(270,132)"/>
<path d="M0 0 C2.97 0 5.94 0 9 0 C9 0.99 9 1.98 9 3 C6.1875 3.625 6.1875 3.625 3 4 C2.01 3.34 1.02 2.68 0 2 C0 1.34 0 0.68 0 0 Z " fill="#0B2C95" transform="translate(218,285)"/>
<path d="M0 0 C4.95 0 9.9 0 15 0 C12 3 12 3 9.3359375 3.14453125 C8.35882813 3.03496094 7.38171875 2.92539063 6.375 2.8125 C5.39273437 2.71582031 4.41046875 2.61914062 3.3984375 2.51953125 C2.60695313 2.34808594 1.81546875 2.17664063 1 2 C0.67 1.34 0.34 0.68 0 0 Z " fill="#7585BC" transform="translate(319,174)"/>
<path d="M0 0 C2.97 0.33 5.94 0.66 9 1 C9 1.33 9 1.66 9 2 C6.36 2 3.72 2 1 2 C1.66 3.98 2.32 5.96 3 8 C1.68 7.67 0.36 7.34 -1 7 C-0.67 4.69 -0.34 2.38 0 0 Z " fill="#586CB1" transform="translate(217,283)"/>
<path d="M0 0 C0.99 0 1.98 0 3 0 C7 6.75 7 6.75 7 9 C6.01 9 5.02 9 4 9 C0 2.25 0 2.25 0 0 Z " fill="#103097" transform="translate(336,151)"/>
<path d="M0 0 C2.31 0 4.62 0 7 0 C7 1.98 7 3.96 7 6 C3.73539027 4.19587357 2.11070205 3.16605307 0 0 Z " fill="#082A94" transform="translate(198,275)"/>
<path d="M0 0 C0.33 0 0.66 0 1 0 C1 4.29 1 8.58 1 13 C0.01 13 -0.98 13 -2 13 C-1.34 8.71 -0.68 4.42 0 0 Z " fill="#092A94" transform="translate(299,236)"/>
<path d="M0 0 C0.33 0 0.66 0 1 0 C1.05410687 1.77049689 1.09284119 3.54146849 1.125 5.3125 C1.14820313 6.29863281 1.17140625 7.28476563 1.1953125 8.30078125 C1 11 1 11 -1 14 C-1 13.01 -1 12.02 -1 11 C-3.31 11 -5.62 11 -8 11 C-8 10.67 -8 10.34 -8 10 C-5.69 10 -3.38 10 -1 10 C-0.67 6.7 -0.34 3.4 0 0 Z " fill="#BABFD6" transform="translate(299,225)"/>
<path d="M0 0 C3.21043882 1.38188453 5.04936365 2.92421903 7.25 5.625 C8.03117187 6.57246094 8.03117187 6.57246094 8.828125 7.5390625 C9.40820312 8.26222656 9.40820312 8.26222656 10 9 C9.01 9.33 8.02 9.66 7 10 C5.83043409 8.52312468 4.66441854 7.04343707 3.5 5.5625 C2.8503125 4.73878906 2.200625 3.91507813 1.53125 3.06640625 C0 1 0 1 0 0 Z " fill="#163599" transform="translate(325,137)"/>
<path d="M0 0 C0.99 0 1.98 0 3 0 C3.66 1.98 4.32 3.96 5 6 C4.01 6.33 3.02 6.66 2 7 C0.5393715 4.35261084 0 3.10551666 0 0 Z " fill="#123198" transform="translate(342,162)"/>
<path d="M0 0 C0 0.99 0 1.98 0 3 C-2.31 2.67 -4.62 2.34 -7 2 C-7 1.34 -7 0.68 -7 0 C-4.3333581 -1.33332095 -2.83319697 -0.67102033 0 0 Z " fill="#DDDCE2" transform="translate(274,373)"/>
<path d="M0 0 C0.99 0 1.98 0 3 0 C3 3.96 3 7.92 3 12 C2.67 12 2.34 12 2 12 C1.34 8.04 0.68 4.08 0 0 Z " fill="#072894" transform="translate(297,162)"/>
<path d="M0 0 C2.3125 0.8125 2.3125 0.8125 3.3125 2.8125 C0.0125 2.8125 -3.2875 2.8125 -6.6875 2.8125 C-2.6875 -0.1875 -2.6875 -0.1875 0 0 Z " fill="#223E9D" transform="translate(290.6875,123.1875)"/>
<path d="M0 0 C2.02907167 3.3146667 2.12742133 5.4315979 1.625 9.25 C1.51414063 10.14203125 1.40328125 11.0340625 1.2890625 11.953125 C1.19367188 12.62859375 1.09828125 13.3040625 1 14 C0.67 14 0.34 14 0 14 C0 10.7 0 7.4 0 4 C-1.65 4 -3.3 4 -5 4 C-5 3.67 -5 3.34 -5 3 C-3.35 3 -1.7 3 0 3 C0 2.01 0 1.02 0 0 Z " fill="#CECFDD" transform="translate(251,232)"/>
<path d="M0 0 C1.98 0.99 3.96 1.98 6 3 C5.01 3.33 4.02 3.66 3 4 C2.67 4.99 2.34 5.98 2 7 C1.67 6.01 1.34 5.02 1 4 C-0.65 3.67 -2.3 3.34 -4 3 C-2.68 2.01 -1.36 1.02 0 0 Z " fill="#8491C2" transform="translate(186,232)"/>
<path d="M0 0 C1.98 0 3.96 0 6 0 C6.66 1.65 7.32 3.3 8 5 C7.34 5 6.68 5 6 5 C6 4.01 6 3.02 6 2 C3.52733235 2.34444881 3.52733235 2.34444881 1 3 C0.67 3.66 0.34 4.32 0 5 C-0.66 4.67 -1.32 4.34 -2 4 C-1.34 2.68 -0.68 1.36 0 0 Z " fill="#3952A6" transform="translate(287,372)"/>
<path d="M0 0 C0.99 0.33 1.98 0.66 3 1 C4.1875 3.5625 4.1875 3.5625 5 6 C4.01 6.33 3.02 6.66 2 7 C0.5393715 4.35261084 0 3.10551666 0 0 Z " fill="#A5ADCE" transform="translate(168,242)"/>
</svg>
